<svg width="248" height="298" viewBox="0 0 248 298" fill="none" xmlns="http://www.w3.org/2000/svg">
<path d="M174.876 206.287C174.703 207.577 174.345 208.872 173.854 210.1C172.304 213.967 169.132 217.217 164.908 218.823C157.407 221.711 149.35 218.228 146.658 211.02C146.55 210.805 146.473 210.634 146.402 210.427C146.245 209.89 146.089 209.356 145.967 208.825C145.831 208.177 145.734 207.535 145.705 206.906C145.614 205.642 145.664 204.407 145.894 203.205L145.979 202.754C146.05 202.378 146.158 202.01 146.266 201.64C146.723 200.014 147.46 198.482 148.46 197.116C149.232 195.98 150.167 194.951 151.231 194.025C152.56 192.876 154.065 191.957 155.778 191.311C157.619 190.573 159.525 190.275 161.365 190.313C161.444 190.289 161.55 190.309 161.658 190.329C164.561 190.417 167.328 191.411 169.589 193.128C169.916 193.346 170.238 193.602 170.524 193.852C171.751 194.98 172.783 196.346 173.559 197.894C173.858 198.457 174.108 199.089 174.321 199.713C174.784 201.165 175.018 202.648 175.032 204.13C175.053 204.211 175.038 204.287 175.024 204.362L174.924 205.472L174.876 206.287Z" fill="#FF9292"/>
<path d="M81.096 93.4299C94.775 93.4299 105.864 82.3364 105.864 68.6518C105.864 54.9671 94.775 43.8735 81.096 43.8735C67.417 43.8735 56.3279 54.9671 56.3279 68.6518C56.3279 82.3364 67.417 93.4299 81.096 93.4299Z" fill="#84DBEF"/>
<path d="M83.5563 78.2207L81.6405 84.4036L78.402 78.8162L71.2648 66.42L75.3951 64.04L80.3179 72.6009L83.5563 78.2207Z" fill="#232996"/>
<path d="M90.9272 54.3205L83.5564 78.2207L81.6405 84.4036L78.402 78.8162L80.3179 72.6009L86.3987 52.8978L90.9272 54.3205Z" fill="#232996"/>
<path d="M90.9049 21.2497C92.577 21.2518 94.249 21.2538 95.9231 21.2559C95.2445 17.638 94.5659 14.0222 93.8874 10.4064C92.8939 14.0202 91.9004 17.636 90.9049 21.2497Z" fill="#232996"/>
<path d="M90.9049 21.2498C92.577 21.2518 94.249 21.2538 95.9231 21.2559C95.2344 24.8697 94.5477 28.4855 93.859 32.1013C92.8736 28.4834 91.8903 24.8676 90.9049 21.2498Z" fill="#232996"/>
<path d="M93.8366 18.7437C93.8345 20.4165 93.8325 22.0892 93.8305 23.7619C96.5428 23.0811 99.253 22.4022 101.965 21.7213C99.2551 20.7315 96.5468 19.7376 93.8366 18.7437Z" fill="#232996"/>
<path d="M93.8366 18.7437C93.8345 20.4165 93.8325 22.0892 93.8305 23.7619C91.1203 23.075 88.41 22.388 85.7018 21.701C88.412 20.7152 91.1243 19.7295 93.8366 18.7437Z" fill="#232996"/>
<path d="M27.6246 15.825C30.0646 15.8291 32.5067 15.8311 34.9467 15.8352C33.9573 10.5568 32.9658 5.2784 31.9764 0C30.5258 5.27434 29.0752 10.5507 27.6246 15.825Z" fill="#232996"/>
<path d="M27.6246 15.825C30.0646 15.8291 32.5067 15.8311 34.9467 15.8352C33.9431 21.1116 32.9374 26.3879 31.9337 31.6622C30.4974 26.3838 29.061 21.1054 27.6246 15.825Z" fill="#232996"/>
<path d="M31.9033 12.1686C31.8992 14.6096 31.8972 17.0527 31.8931 19.4937C35.8508 18.5018 39.8085 17.51 43.7662 16.5161C39.8105 15.0669 35.8569 13.6178 31.9033 12.1686Z" fill="#232996"/>
<path d="M31.9033 12.1686C31.8992 14.6096 31.8972 17.0527 31.8931 19.4937C27.9375 18.4917 23.9839 17.4876 20.0282 16.4856C23.9859 15.0466 27.9436 13.6076 31.9033 12.1686Z" fill="#232996"/>
<path d="M9.56506 56.8592C10.7881 56.8612 12.0092 56.8632 13.2302 56.8632C12.7345 54.221 12.2388 51.5767 11.7431 48.9344C11.0177 51.5767 10.2924 54.219 9.56506 56.8592Z" fill="#232996"/>
<path d="M9.56506 56.8592C10.7881 56.8612 12.0092 56.8632 13.2302 56.8632C12.7284 59.5055 12.2245 62.1457 11.7227 64.788C11.0035 62.1457 10.2843 59.5014 9.56506 56.8592Z" fill="#232996"/>
<path d="M11.7085 55.0279C11.7065 56.2515 11.7044 57.473 11.7024 58.6965C13.6833 58.2006 15.6662 57.7026 17.647 57.2067C15.6682 56.4791 13.6874 55.7535 11.7085 55.0279Z" fill="#232996"/>
<path d="M11.7085 55.0279C11.7065 56.2515 11.7044 57.473 11.7024 58.6965C9.72152 58.1945 7.74272 57.6925 5.76184 57.1905C7.74475 56.4689 9.72563 55.7494 11.7085 55.0279Z" fill="#232996"/>
<path d="M196.109 25.3026C197.968 25.3046 199.827 25.3066 201.688 25.3107C200.934 21.2904 200.18 17.2681 199.424 13.2478C198.319 17.2661 197.214 21.2843 196.109 25.3026Z" fill="#232996"/>
<path d="M196.109 25.3026C197.968 25.3046 199.827 25.3066 201.688 25.3107C200.922 29.3289 200.158 33.3492 199.392 37.3675C198.297 33.3452 197.204 29.3249 196.109 25.3026Z" fill="#232996"/>
<path d="M199.367 22.5181C199.365 24.3778 199.363 26.2375 199.359 28.0993C202.374 27.3432 205.389 26.5871 208.404 25.8311C205.393 24.7254 202.38 23.6217 199.367 22.5181Z" fill="#232996"/>
<path d="M199.367 22.5181C199.365 24.3778 199.363 26.2375 199.359 28.0993C196.346 27.3351 193.333 26.5709 190.32 25.8066C193.337 24.7091 196.352 23.6136 199.367 22.5181Z" fill="#232996"/>
<path d="M215.397 47.8145C216.791 47.8166 218.187 47.8186 219.581 47.8206C219.016 44.8044 218.449 41.7902 217.884 38.774C217.055 41.7882 216.226 44.8003 215.397 47.8145Z" fill="#232996"/>
<path d="M215.397 47.8145C216.791 47.8165 218.187 47.8186 219.581 47.8206C219.008 50.8348 218.433 53.849 217.86 56.8632C217.039 53.847 216.218 50.8307 215.397 47.8145Z" fill="#232996"/>
<path d="M217.841 45.7252C217.839 47.1195 217.837 48.5158 217.835 49.9101C220.097 49.343 222.358 48.7759 224.617 48.2089C222.36 47.3816 220.101 46.5544 217.841 45.7252Z" fill="#232996"/>
<path d="M217.841 45.7252C217.839 47.1195 217.837 48.5158 217.835 49.9101C215.576 49.3369 213.317 48.7637 211.058 48.1906C213.319 47.3694 215.58 46.5483 217.841 45.7252Z" fill="#232996"/>
<path d="M123.672 121.663C124.49 124.556 122.609 128.379 119.165 129.863C119.519 129.997 119.917 130.096 120.275 130.19C120.35 130.243 120.512 130.265 120.587 130.318C121.839 130.253 123.408 129.985 125.096 129.196C128.036 127.763 129.797 125.33 130.378 124.464C131.739 122.511 132.17 121.539 133.019 119.966C133.521 119.088 134.108 118.18 134.649 117.308C134.655 117.267 134.667 117.186 134.667 117.186C134.779 116.995 134.935 116.769 135.045 116.578C135.289 116.035 135.563 115.578 135.878 115.127C136.156 114.629 136.477 114.139 136.756 113.641C137.355 112.653 137.861 111.733 138.363 110.855C139.346 109.218 140.317 107.664 141.168 106.09C141.599 105.407 141.918 104.918 142.204 104.379L142.263 104.263C142.582 103.771 142.828 103.229 143.147 102.737C143.7 101.784 144.196 100.944 144.748 99.9909C144.848 99.8811 144.905 99.7653 145.01 99.6149C145.016 99.5742 145.057 99.5803 145.063 99.5397C145.937 98.0946 146.721 96.6779 147.576 95.3547C147.72 95.2104 147.873 95.0255 147.976 94.8751C151.822 90.3467 152.826 84.3264 150.54 80.1435C148.066 75.5602 135.762 83.613 133.97 86.5378C133.97 86.5378 132.546 88.6475 129.379 94.4747C128.885 95.3121 128.476 96.123 127.965 97.0824C126.841 99.1108 125.583 101.495 124.133 104.344C123.649 105.391 123.184 106.316 122.676 107.237L120.38 111.909C119.572 113.489 118.889 115.044 118.166 116.594L117.554 117.954C120.453 117.633 122.997 119.206 123.672 121.663Z" fill="#FF9292"/>
<path d="M133.072 88.7267C137.05 92.371 140.992 95.9685 145.01 99.6169C145.016 99.5762 145.057 99.5824 145.063 99.5417C145.937 98.0966 146.721 96.6799 147.576 95.3567C147.72 95.2124 147.873 95.0275 147.976 94.8771C147.688 94.5864 147.359 94.2897 147.076 93.9584C142.41 92.2023 137.737 90.4849 133.072 88.7267Z" fill="#FC6565"/>
<path d="M132.282 88.3487C138.572 91.5092 144.862 94.6698 151.152 97.8303C151.684 93.5397 152.219 89.2491 152.751 84.9585C153.001 81.9036 151.597 78.9809 149.11 77.4342C146.119 75.5744 142.058 76.0114 139.307 78.5988C136.965 81.8488 134.624 85.0987 132.282 88.3487Z" fill="#84DBEF"/>
<path d="M42.0722 139.674L43.7787 139.676L43.8229 105.705L42.1163 105.703L42.0722 139.674Z" fill="#232996"/>
<path d="M34.03 142.228L38.5912 141.396L29.7155 92.73L25.1543 93.5625L34.03 142.228Z" fill="#232996"/>
<path d="M41.5416 141.416L43.2184 141.11L37.1197 107.692L35.4429 107.999L41.5416 141.416Z" fill="#FF2468"/>
<path d="M174.331 212.831L174.319 213.87L174.295 220.579L174.315 221.171L174.284 223.953L174.325 237.142L174.337 237.658L174.311 240.477L174.321 243.292L174.335 245.774L174.309 247.815L174.333 260.449L174.362 260.743L174.327 263.081C174.364 263.077 174.358 266.115 174.358 266.115L174.341 267.487L174.331 268.932L174.356 275.377L174.362 277.377C172.342 278.587 168.634 280.434 163.663 280.867C156.284 281.511 150.733 278.641 148.661 277.43C148.661 275.503 148.663 273.576 148.663 271.65L148.661 262.721L148.576 215.002L148.56 212.892C148.58 211.874 148.602 210.856 148.623 209.835C153.773 210.839 158.925 211.845 164.075 212.849L167.109 212.819C169.514 212.823 171.924 212.827 174.331 212.831Z" fill="#FF9292"/>
<path d="M181.261 293.926C181.152 294.442 180.969 294.885 180.674 295.255C180.343 295.625 180.048 295.995 179.717 296.29C159.364 296.111 139.011 295.857 118.657 295.603C117.544 291.991 117.981 289.444 118.495 287.745C120.876 280.4 131.116 275.473 144.649 275.52L145.349 275.518C146.455 275.552 147.599 275.623 148.742 275.731C148.927 275.731 149.073 275.768 149.222 275.768C150.032 275.802 150.733 275.912 151.398 275.91C153.167 276.054 154.311 276.089 154.606 276.125C156.56 276.231 160.542 276.371 169.059 276.243C169.346 276.239 170.097 276.324 171.087 276.203C172.393 276.042 173.431 275.65 174.114 275.335C174.284 275.511 174.545 275.841 174.526 276.249C174.591 276.416 174.591 276.562 174.628 276.674C174.888 277.595 175.073 278.408 175.26 279.034C175.26 279.144 175.26 279.292 175.298 279.402C175.298 279.402 175.818 281.613 176.45 283.79C176.562 284.194 176.674 284.674 176.822 285.154C176.897 285.448 176.97 285.706 177.045 285.965C177.342 286.849 177.602 287.623 177.86 288.066C177.933 288.288 178.082 288.546 178.082 288.546C178.118 288.619 178.155 288.656 178.155 288.731C178.265 288.879 178.376 289.026 178.449 289.135C178.783 289.615 179.152 290.019 179.447 290.351C179.926 290.83 181.442 292.229 181.261 293.926Z" fill="#FF9292"/>
<path d="M181.261 293.926C181.152 294.442 180.969 294.885 180.674 295.255C180.343 295.625 180.048 295.995 179.717 296.29C159.364 296.111 139.011 295.857 118.657 295.603C117.544 291.991 117.981 289.444 118.495 287.745C119.777 283.796 123.237 280.617 128.283 278.467C132.668 276.576 138.306 275.495 144.649 275.52C145.735 274.857 147.044 274.166 147.377 274.518C148.251 275.44 140.991 282.064 142.397 284.458C143.391 286.15 148.167 284.818 151.916 284.15C157.838 283.091 166.192 282.788 177.041 285.967C177.338 286.851 177.598 287.625 177.856 288.068C177.931 288.29 178.078 288.548 178.078 288.548C178.114 288.621 178.151 288.658 178.151 288.733C178.26 288.879 178.372 289.028 178.445 289.137C178.779 289.617 179.148 290.021 179.443 290.353C179.739 290.647 180.404 291.31 180.849 292.158C181.147 292.672 181.332 293.263 181.261 293.926Z" fill="#84DBEF"/>
<path d="M194.024 291.137C194.02 293.979 196.289 296.288 199.091 296.292C201.893 296.296 204.168 293.995 204.172 291.152C204.176 288.31 201.907 286.001 199.105 285.999C196.304 285.993 194.028 288.294 194.024 291.137Z" fill="#232996"/>
<path d="M145.902 221.134L199.587 221.207C202.596 221.211 205.062 218.752 205.064 215.742C205.068 212.656 202.61 210.191 199.601 210.187L145.916 210.114C142.907 210.11 140.443 212.569 140.439 215.579C140.435 218.664 142.893 221.13 145.902 221.134Z" fill="#232996"/>
<path d="M170.436 288.835L174.802 288.84L174.892 219.453L170.526 219.447L170.436 288.835Z" fill="#232996"/>
<path d="M198.695 294.692C198.321 294.629 198.144 294.363 198.197 294.086C199.818 285.808 196.43 277.605 189.766 273.678C182.305 269.276 174.236 272.599 173.344 272.989C173.084 273.105 172.789 272.985 172.675 272.729C172.562 272.471 172.679 272.172 172.935 272.06C174.475 271.383 182.549 268.243 190.282 272.8C197.317 276.946 200.899 285.578 199.195 294.28C199.146 294.523 198.933 294.692 198.695 294.692Z" fill="#232996"/>
<path d="M168.039 291.101C168.035 293.942 170.304 296.251 173.106 296.253C175.908 296.257 178.183 293.956 178.187 291.113C178.191 288.272 175.922 285.963 173.12 285.961C170.317 285.959 168.043 288.259 168.039 291.101Z" fill="#232996"/>
<path d="M147.064 294.623C146.827 294.623 146.611 294.454 146.566 294.213C144.884 285.507 148.488 276.885 155.534 272.755C163.269 268.225 171.341 271.381 172.881 272.06C173.139 272.174 173.254 272.473 173.141 272.729C173.027 272.987 172.72 273.103 172.472 272.989C171.01 272.347 163.358 269.349 156.046 273.631C149.374 277.542 145.963 285.733 147.562 294.015C147.615 294.292 147.434 294.56 147.162 294.611C147.127 294.621 147.095 294.623 147.064 294.623Z" fill="#232996"/>
<path d="M151.741 291.08C151.737 293.922 149.464 296.225 146.66 296.221C143.858 296.217 141.589 293.91 141.593 291.068C141.597 288.227 143.873 285.926 146.674 285.928C149.476 285.93 151.745 288.237 151.741 291.08Z" fill="#232996"/>
<path d="M168.057 275.316L177.352 275.329L177.381 254.05L168.086 254.037L168.057 275.316Z" fill="#232996"/>
<path d="M84.1597 152.039C90.724 151.131 99.958 148.933 109.58 143.271C117.227 138.769 122.782 133.456 126.607 129.052C128.647 126.7 129.236 123.434 128.123 120.602C126.88 117.446 123.726 115.359 120.23 115.409C105.771 123.11 91.3112 130.814 76.8539 138.515C75.767 138.566 70.6614 138.921 66.8256 143.131C64.2535 145.954 63.5526 149.082 63.3311 150.446C70.2733 150.976 77.2175 151.509 84.1597 152.039Z" fill="#FF9292"/>
<path d="M194.981 125.507C195.546 126.824 196.226 128.818 196.452 131.326C196.671 133.783 196.373 135.828 196.062 137.212C187.043 137.318 178.027 137.423 169.008 137.529C162.208 128.661 153.966 115.94 147.542 99.3527C142.855 87.2471 140.333 76.1761 138.944 67.1315C141.54 65.6579 145.705 63.5339 146.694 64.6518C146.853 64.8307 146.944 65.1091 146.902 65.54C153.468 71.8327 160.303 78.9647 167.166 87.0053C178.659 100.475 187.773 113.621 194.981 125.507Z" fill="#FF9292"/>
<path d="M164.234 185.033L165.272 185.061L171.976 185.199L172.568 185.189L175.347 185.266L188.528 185.449L189.047 185.445L191.862 185.521L194.676 185.557L197.157 185.584L199.197 185.644L211.824 185.834L212.118 185.811L214.455 185.886C214.453 185.85 217.49 185.907 217.49 185.907L218.861 185.947L220.306 185.982L226.748 186.067L228.747 186.096C229.922 188.136 231.705 191.876 232.055 196.858C232.573 204.25 229.613 209.752 228.365 211.805C226.439 211.77 224.513 211.738 222.587 211.705L213.662 211.557L165.969 210.833L163.86 210.815C163.821 210.78 164.081 195.295 164.081 195.295L164.102 192.26L164.205 185.592L164.234 185.033Z" fill="#FF9292"/>
<path d="M245.401 179.474C245.915 179.592 246.356 179.783 246.72 180.084C247.083 180.421 247.447 180.722 247.737 181.057C247.213 201.413 246.616 221.768 246.017 242.122C242.388 243.174 239.851 242.693 238.162 242.152C230.86 239.646 226.11 229.319 226.387 215.784L226.397 215.083C226.45 213.978 226.541 212.835 226.669 211.693C226.671 211.508 226.712 211.362 226.714 211.213C226.763 210.402 226.884 209.703 226.895 209.041C227.069 207.272 227.122 206.13 227.165 205.835C227.305 203.882 227.51 199.9 227.528 191.38C227.528 191.094 227.626 190.344 227.522 189.352C227.384 188.041 227.008 186.998 226.708 186.309C226.886 186.142 227.222 185.886 227.63 185.913C227.797 185.85 227.945 185.852 228.055 185.817C228.981 185.573 229.794 185.401 230.424 185.226C230.533 185.228 230.682 185.23 230.793 185.193C230.793 185.193 233.014 184.71 235.198 184.116C235.604 184.01 236.086 183.909 236.567 183.768C236.864 183.699 237.122 183.628 237.382 183.559C238.272 183.277 239.05 183.031 239.495 182.779C239.716 182.707 239.976 182.565 239.976 182.565C240.052 182.529 240.088 182.494 240.161 182.494C240.31 182.386 240.46 182.277 240.572 182.205C241.055 181.88 241.468 181.518 241.803 181.228C242.284 180.754 243.707 179.264 245.401 179.474Z" fill="#FF9292"/>
<path d="M245.401 179.474C245.915 179.592 246.356 179.783 246.719 180.084C247.083 180.421 247.447 180.722 247.737 181.057C247.213 201.413 246.616 221.768 246.017 242.122C242.388 243.174 239.85 242.695 238.162 242.152C234.237 240.802 231.118 237.288 229.054 232.203C227.24 227.786 226.255 222.128 226.385 215.784C225.741 214.685 225.072 213.364 225.43 213.038C226.368 212.181 232.864 219.555 235.281 218.189C236.988 217.225 235.738 212.423 235.133 208.663C234.176 202.72 234.013 194.36 237.374 183.561C238.264 183.279 239.042 183.033 239.487 182.781C239.708 182.71 239.968 182.567 239.968 182.567C240.043 182.531 240.08 182.496 240.153 182.496C240.301 182.388 240.452 182.279 240.564 182.208C241.047 181.882 241.459 181.521 241.795 181.23C242.093 180.939 242.768 180.285 243.621 179.856C244.145 179.565 244.737 179.39 245.401 179.474Z" fill="#84DBEF"/>
<path d="M196.058 137.208L185.501 169.427L184.778 171.659L182.586 178.313L180.755 183.899L178.506 190.819L175.839 199.073L174.886 202.028L174.713 202.486C174.656 202.563 163.604 198.921 163.604 198.921L148.645 194.059C148.627 194.02 150.132 189.464 150.132 189.464L156.611 169.598L157.107 168.074C157.145 168.074 160.288 158.446 160.288 158.446L165.871 141.421C167.72 137.342 169.549 133.261 171.398 129.163L190.682 135.454L196.058 137.208Z" fill="#FF9292"/>
<path d="M177.098 197.583C176.926 198.874 176.568 200.169 176.074 201.396C174.524 205.264 171.355 208.514 167.129 210.12C159.63 213.008 151.57 209.524 148.878 202.317C148.773 202.102 148.694 201.931 148.623 201.724C148.466 201.187 148.31 200.652 148.188 200.122C148.054 199.474 147.954 198.831 147.926 198.203C147.834 196.941 147.885 195.703 148.115 194.502L148.2 194.051C148.271 193.675 148.379 193.307 148.486 192.937C148.943 191.311 149.679 189.779 150.681 188.413C151.453 187.277 152.387 186.248 153.452 185.321C154.781 184.173 156.286 183.254 157.999 182.608C159.839 181.87 161.745 181.571 163.586 181.61C163.665 181.586 163.771 181.606 163.878 181.626C166.782 181.714 169.549 182.71 171.81 184.425C172.137 184.645 172.458 184.899 172.744 185.149C173.972 186.279 175.004 187.642 175.78 189.191C176.078 189.754 176.328 190.386 176.542 191.01C177.005 192.461 177.239 193.945 177.251 195.427C177.271 195.508 177.259 195.583 177.243 195.659L177.143 196.768L177.098 197.583Z" fill="#FF9292"/>
<path d="M151.367 72.5582C148.852 78.0297 145.173 80.1089 143.021 78.6028C142.678 78.3935 141.629 77.5723 140.943 74.7716L140.886 74.6577C140.963 74.5805 140.62 73.361 140.581 73.2858C140.581 73.2472 140.429 72.7716 140.22 71.9708L140.163 71.7228C139.915 70.731 139.571 69.3773 139.133 67.8713C139.037 67.4526 138.905 67.0135 138.789 66.5948C138.771 66.5176 138.751 66.4607 138.732 66.4038C138.619 66.0034 138.503 65.5644 138.389 65.164C137.932 63.4099 137.513 61.7331 137.188 60.416C137.131 60.3022 137.075 60.1497 137.075 60.0156C136.94 59.5766 136.808 59.1965 136.731 58.7961L139.019 56.5075L140.563 55.04C140.601 55.1539 140.697 55.1538 140.715 55.2311C141.038 55.5929 141.306 55.975 141.668 56.3185C141.686 56.3571 141.686 56.3957 141.764 56.4709C141.955 56.8327 142.146 57.1193 142.335 57.4242C142.544 57.7494 142.753 58.0908 142.944 58.416C143.783 59.7697 144.602 61.1233 145.402 62.4384C145.746 62.9526 146.089 63.4871 146.373 64.04C147.688 66.2127 149.023 68.3306 150.299 70.4647C150.681 71.109 151.024 71.8143 151.367 72.5582Z" fill="#FF9292"/>
<path d="M19.4105 157.517L137.599 157.679C139.204 157.681 140.518 156.37 140.52 154.765C140.522 153.094 139.212 151.779 137.607 151.777L19.4187 151.614C17.8136 151.612 16.4992 152.923 16.4971 154.529C16.4931 156.2 17.8055 157.515 19.4105 157.517Z" fill="#232996"/>
<path d="M128.991 296.219L132.993 295.532L110.257 157.228L106.256 157.917L128.991 296.219Z" fill="#232996"/>
<path d="M27.6551 296.08L23.6547 295.381L46.7527 157.141L50.7531 157.84L27.6551 296.08Z" fill="#232996"/>
<path d="M144.722 168.285C163.366 170.358 182.013 172.429 200.66 174.502C202.11 165.478 205.263 138.397 190.241 109.588C177.104 84.3955 157.288 71.731 149.027 67.0603C146.065 69.7391 143.102 72.418 140.14 75.0948C140.744 79.5561 141.751 86.8121 143.115 95.7612C147.19 122.527 149.116 129.389 148.854 141.328C148.714 147.545 147.946 156.868 144.722 168.285Z" fill="#84DBEF"/>
<path d="M138.265 119.556C139.49 122.302 138.174 126.354 134.978 128.316C135.346 128.399 135.756 128.44 136.124 128.48C136.205 128.521 136.37 128.521 136.451 128.562C137.68 128.318 139.194 127.828 140.752 126.806C143.456 124.966 144.852 122.306 145.303 121.365C146.369 119.237 146.658 118.214 147.273 116.535C147.643 115.594 148.094 114.613 148.505 113.67C148.505 113.629 148.505 113.548 148.505 113.548C148.586 113.342 148.71 113.098 148.791 112.893C148.956 112.32 149.161 111.828 149.407 111.338C149.612 110.806 149.858 110.273 150.063 109.743C150.514 108.678 150.884 107.696 151.253 106.755C151.993 104.995 152.733 103.316 153.348 101.639C153.677 100.901 153.923 100.371 154.128 99.7977L154.169 99.6758C154.415 99.1433 154.579 98.5701 154.827 98.0376C155.238 97.0153 155.607 96.1129 156.018 95.0905C156.099 94.9686 156.142 94.8445 156.223 94.6819C156.223 94.6413 156.264 94.6413 156.264 94.6007C156.92 93.0458 157.497 91.5316 158.153 90.0986C158.275 89.934 158.399 89.7308 158.48 89.5661C161.639 84.5337 161.769 78.4321 158.909 74.6191C155.802 70.4383 144.779 80.1699 143.423 83.3203C143.423 83.3203 142.314 85.6129 140.014 91.8344C139.645 92.7348 139.358 93.5946 138.986 94.6169C138.166 96.7856 137.261 99.3242 136.233 102.353C135.904 103.458 135.575 104.44 135.205 105.422L133.602 110.375C133.027 112.054 132.574 113.69 132.081 115.328L131.67 116.761C134.502 116.029 137.243 117.22 138.265 119.556Z" fill="#FF9292"/>
<path d="M142.853 85.6129C147.31 88.6495 151.727 91.6454 156.227 94.6819C156.227 94.6413 156.268 94.6413 156.268 94.6007C156.924 93.0458 157.501 91.5316 158.157 90.0986C158.279 89.934 158.403 89.7308 158.484 89.5661C158.157 89.3202 157.789 89.0743 157.462 88.7857C152.592 87.7145 147.723 86.684 142.853 85.6129Z" fill="#FC6565"/>
<path d="M142.018 85.3528C148.696 87.5804 155.372 89.8081 162.05 92.0337C161.964 87.7105 161.877 83.3874 161.792 79.0642C161.603 76.0053 159.793 73.3123 157.111 72.1375C153.884 70.7249 149.927 71.7391 147.576 74.6944C145.723 78.2472 143.87 81.8 142.018 85.3528Z" fill="#84DBEF"/>
<path d="M110.87 161.781C116.742 158.71 124.696 153.523 131.843 144.944C137.523 138.125 140.959 131.247 143.076 125.81C144.204 122.907 143.657 119.633 141.654 117.344C139.419 114.791 135.746 113.893 132.471 115.121C121.457 127.253 110.445 139.385 99.4318 151.515L110.87 161.781Z" fill="#FF9292"/>
<path d="M91.1751 159.511C92.579 160.72 93.6761 160.919 94.4136 160.88C95.4558 160.826 95.8377 160.295 96.9694 160.397C98.1924 160.506 98.231 161.171 99.3607 161.313C100.96 161.517 101.435 160.252 102.945 160.466C104.161 160.637 104.058 161.486 105.415 161.834C106.892 162.212 107.439 161.315 109.424 161.413C110.819 161.48 111.146 161.952 112.152 162.1C113.43 162.287 115.317 161.883 117.954 159.208C119.854 157.206 121.752 155.204 123.649 153.202C116.815 151.277 109.98 149.35 103.144 147.425C99.0762 146.931 95.1246 148.564 92.8898 151.714C90.5473 155.021 91.041 158.669 91.1751 159.511Z" fill="#FF9292"/>
<path d="M75.4825 224.203C79.5743 226.213 83.664 228.223 87.7558 230.233C89.0256 230.553 94.3424 231.735 99.1433 228.713C104.572 225.296 107.124 217.896 105.051 210.549C96.9918 211.392 88.9301 212.234 80.8705 213.075C79.0745 216.784 77.2785 220.494 75.4825 224.203Z" fill="white"/>
<path d="M87.7538 230.488C87.6055 230.483 87.4957 230.366 87.4998 230.225L88.0341 213.717C88.0382 213.581 88.152 213.471 88.2881 213.471C88.4364 213.476 88.5461 213.593 88.5421 213.734L88.0077 230.242C88.0057 230.38 87.8919 230.488 87.7538 230.488Z" fill="white"/>
<path d="M29.2722 150.533L48.4613 150.559C48.7275 142.946 48.9936 135.332 49.2598 127.718C42.6081 127.71 35.9564 127.7 29.3027 127.692C29.2925 135.303 29.2824 142.919 29.2722 150.533Z" fill="white"/>
<path d="M187.72 145.281L196.363 142.007C196.98 141.773 197.293 141.076 197.059 140.46L196.94 140.141C196.706 139.523 196.009 139.21 195.393 139.444L186.751 142.718C186.133 142.952 185.82 143.649 186.054 144.265L186.174 144.584C186.405 145.202 187.102 145.515 187.72 145.281Z" fill="#FF2468"/>
<path d="M161.753 128.505L168.279 135.051C168.744 135.519 169.508 135.519 169.975 135.054L170.217 134.814C170.684 134.348 170.686 133.584 170.219 133.117L163.693 126.57C163.228 126.102 162.464 126.102 161.997 126.568L161.755 126.81C161.288 127.273 161.286 128.037 161.753 128.505Z" fill="#FF2468"/>
<path d="M179.055 122.302L182.196 113.607C182.421 112.985 182.096 112.294 181.475 112.07L181.154 111.954C180.534 111.731 179.841 112.054 179.618 112.676L176.477 121.371C176.253 121.991 176.576 122.684 177.198 122.907L177.519 123.023C178.141 123.247 178.831 122.922 179.055 122.302Z" fill="#FF2468"/>
<path d="M167.507 104.554L158.815 101.412C158.196 101.186 157.503 101.511 157.279 102.133L157.164 102.454C156.94 103.076 157.263 103.767 157.885 103.991L166.576 107.135C167.196 107.359 167.889 107.035 168.112 106.414L168.228 106.092C168.452 105.47 168.126 104.779 167.507 104.554Z" fill="#FF2468"/>
<path d="M162.858 160.096L170.56 154.986C171.111 154.62 171.261 153.872 170.898 153.322L170.709 153.037C170.343 152.486 169.595 152.336 169.045 152.7L161.343 157.809C160.792 158.175 160.642 158.923 161.005 159.474L161.194 159.759C161.56 160.309 162.308 160.462 162.858 160.096Z" fill="#FF2468"/>
<path d="M137.471 51.7372C137.635 50.3287 138.795 49.3064 140.063 49.4547C141.331 49.6031 142.227 50.8632 142.062 52.2718C141.898 53.6803 140.738 54.7027 139.47 54.5543C138.202 54.4079 137.308 53.1457 137.471 51.7372Z" fill="#FF9292"/>
<path d="M73.7454 150.419C74.3284 150.417 74.9116 150.417 75.4947 150.415C77.8819 139.834 80.2691 129.253 82.6542 118.672L80.9903 118.296C78.5747 129.003 76.159 139.712 73.7454 150.419Z" fill="#232996"/>
<path d="M81.7522 146.545C78.1988 147.068 74.6454 147.592 71.092 148.114C70.9295 148.062 69.5378 147.584 69.036 146.137C68.6418 144.997 68.9547 143.702 69.8405 142.812C73.2151 141.72 76.5897 140.627 79.9643 139.535C80.5616 141.873 81.1569 144.21 81.7522 146.545Z" fill="#FF9292"/>
<path d="M103.146 147.931C103.024 147.931 102.902 147.887 102.804 147.799C102.595 147.608 102.581 147.289 102.768 147.082L128.302 118.954C128.493 118.745 128.814 118.735 129.019 118.917C129.228 119.109 129.242 119.428 129.056 119.637L103.521 147.765C103.42 147.877 103.284 147.931 103.146 147.931Z" fill="#F25353"/>
<path d="M128.68 119.804C128.615 119.804 128.55 119.791 128.483 119.763C128.225 119.655 128.101 119.359 128.21 119.098L138.523 94.4177C138.633 94.1575 138.923 94.0316 139.187 94.1454C139.445 94.2531 139.569 94.5498 139.46 94.81L129.147 119.491C129.066 119.688 128.879 119.804 128.68 119.804Z" fill="#F25353"/>
<path d="M94.7508 150.244C94.5842 150.244 94.4217 150.163 94.3242 150.013C94.1718 149.777 94.2388 149.464 94.4745 149.309C95.4863 148.657 96.5692 148.114 97.6947 147.698C98.7492 147.31 99.8483 147.027 100.968 146.858C101.262 146.812 101.504 147.009 101.545 147.285C101.587 147.564 101.396 147.822 101.118 147.862C100.068 148.021 99.0356 148.285 98.0462 148.651C96.9877 149.041 95.9719 149.549 95.0251 150.163C94.9418 150.218 94.8463 150.244 94.7508 150.244Z" fill="#F25353"/>
<path d="M73.7434 147.671C71.8966 147.671 70.3627 146.795 70.062 145.551C69.7431 144.216 70.9702 143.027 71.6325 142.387C72.5183 141.529 73.6581 140.921 74.9259 140.633C75.1981 140.578 75.4744 140.743 75.5353 141.015C75.5963 141.289 75.4257 141.562 75.1534 141.625C74.0665 141.871 73.0933 142.389 72.3395 143.116C71.8255 143.614 70.8666 144.541 71.0514 145.312C71.218 146.005 72.3558 146.718 73.8795 146.651C74.2188 146.665 74.3956 146.864 74.4017 147.145C74.4098 147.425 74.1884 147.659 73.908 147.667C73.8531 147.671 73.7963 147.671 73.7434 147.671Z" fill="#F25353"/>
<path d="M142.335 57.4222C142.335 58.9282 142.087 60.7209 141.304 62.6274C140.599 64.3428 139.647 65.6579 138.789 66.5928C138.771 66.5156 138.751 66.4586 138.732 66.4017C138.619 66.0013 138.503 65.5623 138.389 65.1619C137.932 63.4079 137.513 61.7311 137.188 60.414C137.131 60.3002 137.075 60.1478 137.075 60.0136C136.94 59.5746 136.808 59.1945 136.731 58.7941L139.019 56.5055L140.563 55.038C140.601 55.1518 140.697 55.1519 140.715 55.2291C141.038 55.5909 141.306 55.973 141.668 56.3165C141.686 56.3551 141.686 56.3937 141.764 56.4689C141.955 56.8307 142.144 57.1173 142.335 57.4222Z" fill="#FC6565"/>
<path d="M142.761 51.2108C144.049 57.6153 141.042 63.6355 136.118 64.5888C131.953 65.4201 127.729 62.4181 125.76 57.6539C125.39 56.7698 125.074 55.8104 124.878 54.7982C124.868 54.7352 124.696 53.656 124.696 53.656C124.391 50.9365 124.759 48.3694 125.754 46.2556C126.937 43.6886 128.982 41.8288 131.538 41.3207L132.079 41.2333C136.388 40.7049 140.664 44.2191 142.322 49.4894C142.511 50.0463 142.633 50.6133 142.761 51.2108Z" fill="#FF9292"/>
<path d="M128.984 61.0664C128.535 60.8225 128.086 60.5766 127.637 60.3327C126.465 59.4872 125.293 58.6417 124.121 57.7982C124.052 57.6213 123.987 57.3653 124.094 57.1376C124.281 56.7393 124.88 56.6641 125.12 56.6295C125.787 56.5299 126.774 56.2555 128.227 55.5076C128.479 57.3592 128.73 59.2128 128.984 61.0664Z" fill="#FF9292"/>
<path d="M132.895 58.6092C133.554 60.5604 132.808 62.2535 131.835 62.536C130.939 62.7962 129.982 61.8246 129.887 61.727C130.352 61.4384 130.921 61.0258 131.498 60.4405C132.14 59.7901 132.591 59.1356 132.895 58.6092Z" fill="white"/>
<path d="M128.143 53.906C128.03 53.906 127.916 53.8694 127.822 53.7901L126.14 52.41C125.923 52.2312 125.89 51.9121 126.069 51.6946C126.248 51.4792 126.569 51.4446 126.784 51.6235L128.466 53.0036C128.684 53.1824 128.716 53.5015 128.537 53.719C128.436 53.843 128.292 53.906 128.143 53.906Z" fill="#232996"/>
<path d="M129.649 53.2149C129.517 53.2149 129.385 53.1641 129.283 53.0604L127.794 51.5259C127.599 51.3246 127.603 51.0035 127.806 50.8064C128.007 50.6112 128.328 50.6174 128.525 50.8186L130.015 52.3531C130.21 52.5543 130.205 52.8755 130.002 53.0726C129.905 53.1661 129.775 53.2149 129.649 53.2149Z" fill="#232996"/>
<path d="M128.787 57.3084C128.521 57.3084 128.298 57.101 128.281 56.8348L128.204 55.6539C128.184 55.3734 128.397 55.1316 128.676 55.1133C129.011 55.0584 129.2 55.3084 129.216 55.5848L129.293 56.7657C129.314 57.0462 129.1 57.2881 128.822 57.3064C128.81 57.3084 128.798 57.3084 128.787 57.3084Z" fill="#232996"/>
<path d="M130.719 56.8247C130.518 56.8247 130.331 56.7047 130.248 56.5096L129.819 55.4608C129.714 55.2006 129.838 54.906 130.098 54.7982C130.362 54.6905 130.652 54.8185 130.76 55.0767L131.189 56.1254C131.294 56.3856 131.171 56.6803 130.91 56.7881C130.847 56.8124 130.782 56.8247 130.719 56.8247Z" fill="#232996"/>
<path d="M126.422 54.8714C126.544 55.3084 127.125 55.534 127.765 55.6275C128.237 55.7088 128.737 55.7007 129.098 55.6356L129.299 55.599C129.419 55.5767 129.541 55.5543 129.655 55.4933C130.654 55.2698 131.758 54.6946 131.745 53.9487C131.778 53.4426 131.353 52.9385 130.75 52.5889C130.275 52.2596 129.667 52.1194 129.088 52.1418C128.838 52.1458 128.637 52.1824 128.403 52.2658C128.363 52.2739 128.129 52.3572 128.129 52.3572C127.239 52.7271 126.591 53.5116 126.427 54.2068C126.349 54.4669 126.345 54.6763 126.422 54.8714Z" fill="white"/>
<path d="M132.674 56.6072C133.113 57.8246 134.456 58.4527 135.673 58.0137C136.89 57.5747 137.517 56.2312 137.079 55.0137C136.64 53.7962 135.297 53.1682 134.08 53.6072C132.863 54.0483 132.233 55.3917 132.674 56.6072Z" fill="#FC6565"/>
<path d="M126.422 54.8714C126.544 55.3084 127.125 55.534 127.765 55.6275C128.237 55.7088 128.737 55.7007 129.098 55.6356L129.299 55.599C129.419 55.5767 129.541 55.5543 129.655 55.4933C129.852 55.2067 129.923 54.9039 129.864 54.5808C129.718 53.7759 128.787 53.2372 127.741 53.4263C127.178 53.5279 126.691 53.8246 126.427 54.2068C126.349 54.4669 126.345 54.6763 126.422 54.8714Z" fill="#232996"/>
<path d="M175.345 188.921C175.189 188.921 175.032 188.848 174.933 188.709C174.77 188.482 174.821 188.163 175.05 188L179.484 184.819C179.707 184.659 180.026 184.703 180.193 184.937C180.355 185.165 180.304 185.484 180.075 185.647L175.642 188.827C175.55 188.888 175.449 188.921 175.345 188.921Z" fill="#F25353"/>
<path d="M156.869 210.602C156.814 210.602 156.755 210.591 156.7 210.573C155.112 210.014 152.107 208.595 149.87 205.372C147.698 202.242 147.377 199.02 147.379 197.38C147.379 197.098 147.607 196.872 147.887 196.872C148.169 196.872 148.395 197.1 148.395 197.38C148.393 198.902 148.689 201.89 150.703 204.791C152.779 207.778 155.563 209.093 157.038 209.61C157.302 209.703 157.44 209.994 157.348 210.258C157.275 210.471 157.08 210.602 156.869 210.602Z" fill="#F25353"/>
<path d="M244.517 121.993H234.17C233.617 120.81 233.083 119.629 232.551 118.428C232.475 119.629 232.417 120.81 232.38 121.993H223.29C222.851 120.6 222.413 119.19 221.976 117.779C221.805 119.19 221.633 120.582 221.48 121.993H192.876C187.311 112.289 182.224 103.995 177.992 97.3039C177.992 97.2856 161.012 70.422 153.541 72.424C153.255 72.4992 152.227 72.4057 150.949 72.8061C147.95 73.7451 145.473 70.9627 144.87 70.481C141.772 68.0054 140.935 64.4485 140.591 62.8997C139.417 57.5929 141.721 55.4628 140.234 52.7311C139.352 51.1112 137.142 49.2901 131.053 48.9182C129.767 49.4161 127.713 49.9994 125.183 49.8714C124.06 49.8145 123.068 49.6234 122.247 49.3958C121.295 48.0807 121.199 46.345 122.02 45.03C122.954 43.4853 124.954 42.78 126.784 43.4284C128.176 41.2922 130.634 38.3187 134.311 37.4792C141.82 35.7638 144.449 46.2292 160.361 53.6844C167.031 56.8104 171.529 57.3266 176.787 62.4932C179.341 64.9911 179.933 66.4769 182.696 67.8875C188.699 70.9566 193.063 67.5643 196.34 70.6131C199.504 73.5683 197.236 77.7817 200.379 79.8975C203.809 82.2227 207.754 77.8203 212.043 80.0113C215.873 81.9747 214.119 86.1495 218.483 88.9523C222.276 91.3933 226.22 89.9238 227.898 92.8791C228.432 93.8323 228.203 94.31 228.489 96.1006C228.489 96.1006 229.194 101.115 232.549 104.928C236.169 109.046 240.342 107.578 243.201 110.991C244.631 112.729 245.832 115.854 244.517 121.993Z" fill="#FF2468"/>
<path d="M246.297 122.23C246.262 122.23 246.228 122.226 246.193 122.22C245.917 122.163 245.742 121.893 245.799 121.619C247.036 115.686 246.526 111.497 244.286 109.166C243.044 107.875 241.62 107.414 239.974 106.879C237.991 106.237 235.749 105.507 233.617 103.084C230.2 99.2022 229.465 94.2043 229.434 93.993C229.328 93.3324 229.294 92.8425 229.261 92.4401C229.215 91.7856 229.188 91.4564 228.904 90.9482C228.099 89.5316 226.657 89.2755 224.828 88.9523C223.244 88.6698 221.448 88.3527 219.658 87.2003C217.291 85.682 216.606 83.7634 216.001 82.0724C215.444 80.5073 214.961 79.1578 213.258 78.2878C211.273 77.2736 209.317 77.8122 207.427 78.3285C205.463 78.8691 203.435 79.4261 201.543 78.1395C199.77 76.9464 199.536 75.1516 199.309 73.4179C199.095 71.8102 198.878 70.1477 197.441 68.8042C195.973 67.4363 194.244 67.4932 192.072 67.5847C189.723 67.6721 187.062 67.7717 183.915 66.1619C181.958 65.164 181.032 64.1152 179.859 62.788C179.315 62.1721 178.697 61.473 177.883 60.6783C173.695 56.5807 169.537 54.9954 161.987 52.1174L161.629 51.9812C157.934 50.5726 154.149 49.1194 150.219 47.6113C144.949 45.5869 139.421 43.463 133.505 41.2171C133.243 41.1175 133.111 40.8248 133.21 40.5626C133.31 40.3004 133.602 40.1642 133.864 40.2679C139.781 42.5138 145.313 44.6378 150.583 46.6621C154.512 48.1702 158.295 49.6235 161.989 51.032L162.346 51.1661C170.024 54.0929 174.252 55.7047 178.592 59.9506C179.431 60.7697 180.063 61.4852 180.617 62.1132C181.763 63.4099 182.59 64.3449 184.374 65.2554C187.289 66.7452 189.806 66.6517 192.033 66.5684C194.254 66.4851 196.357 66.4079 198.134 68.0623C199.839 69.6517 200.093 71.5826 200.314 73.2838C200.532 74.9342 200.718 76.359 202.114 77.298C203.628 78.3224 205.263 77.8712 207.159 77.3488C209.142 76.8021 211.385 76.1882 213.725 77.3813C215.785 78.4382 216.383 80.111 216.96 81.7309C217.537 83.3447 218.132 85.0134 220.208 86.3467C221.827 87.3873 223.518 87.6861 225.007 87.9523C226.931 88.2918 228.749 88.6149 229.79 90.4503C230.184 91.1576 230.222 91.6637 230.275 92.3629C230.304 92.743 230.338 93.2064 230.44 93.8425C230.448 93.8994 231.167 98.7653 234.377 102.414C236.323 104.627 238.337 105.279 240.285 105.914C241.988 106.466 243.597 106.989 245.013 108.46C247.506 111.05 248.103 115.546 246.793 121.826C246.742 122.066 246.533 122.23 246.297 122.23Z" fill="#FF2468"/>
<path d="M141.995 51.4507C141.995 52.9588 140.892 54.1823 139.533 54.1823C138.174 54.1823 137.07 52.9588 137.07 51.4507C137.07 49.9425 138.172 48.719 139.533 48.719C140.892 48.719 141.995 49.9425 141.995 51.4507Z" fill="#FF9292"/>
<path d="M14.7174 228.447C39.0629 229.042 63.4083 229.638 87.7538 230.233C88.3024 203.616 88.8488 176.996 89.3954 150.379C67.4777 150.433 45.5602 150.49 23.6425 150.547C20.6682 176.514 17.6938 202.48 14.7174 228.447Z" fill="#FF2468"/>
<path d="M236.533 297.052H230.277C229.857 297.052 229.515 296.71 229.515 296.29C229.515 295.869 229.857 295.528 230.277 295.528H236.533C236.953 295.528 237.295 295.869 237.295 296.29C237.295 296.71 236.953 297.052 236.533 297.052Z" fill="#232996"/>
<path d="M225.751 297.052H222.177C221.756 297.052 221.415 296.71 221.415 296.29C221.415 295.869 221.756 295.528 222.177 295.528H225.751C226.171 295.528 226.513 295.869 226.513 296.29C226.513 296.71 226.171 297.052 225.751 297.052Z" fill="#232996"/>
<path d="M216.462 297.052H17.2773C16.8568 297.052 16.5154 296.71 16.5154 296.29C16.5154 295.869 16.8568 295.528 17.2773 295.528H216.462C216.882 295.528 217.224 295.869 217.224 296.29C217.224 296.71 216.882 297.052 216.462 297.052Z" fill="#232996"/>
<path d="M10.4488 297.052H8.06571C7.64515 297.052 7.30383 296.71 7.30383 296.29C7.30383 295.869 7.64515 295.528 8.06571 295.528H10.4488C10.8694 295.528 11.2107 295.869 11.2107 296.29C11.2107 296.71 10.8694 297.052 10.4488 297.052Z" fill="#232996"/>
<path d="M4.41476 297.052H0.761875C0.34132 297.052 0 296.71 0 296.29C0 295.869 0.34132 295.528 0.761875 295.528H4.41476C4.83531 295.528 5.17663 295.869 5.17663 296.29C5.17663 296.71 4.83531 297.052 4.41476 297.052Z" fill="#232996"/>
<path d="M184.589 172.809C183.921 174.643 183.252 176.476 182.584 178.311C173.933 175.413 165.262 172.515 156.609 169.598C165.936 170.669 175.262 171.738 184.589 172.809Z" fill="#FC6565"/>
</svg>
